<?xml version="1.0" standalone="no"?>
<!DOCTYPE svg PUBLIC "-//W3C//DTD SVG 20010904//EN"
 "http://www.w3.org/TR/2001/REC-SVG-20010904/DTD/svg10.dtd">
<svg version="1.0" xmlns="http://www.w3.org/2000/svg"
 width="1200.000000pt" height="536.000000pt" viewBox="0 0 1200.000000 536.000000"
 preserveAspectRatio="xMidYMid meet">

<g transform="translate(0.000000,536.000000) scale(0.100000,-0.100000)"
fill="#000000" stroke="none">
<path d="M2385 4556 c-54 -17 -85 -34 -117 -64 -24 -22 -28 -33 -28 -83 0 -57
15 -109 32 -109 4 0 8 7 8 15 0 18 4 18 50 5 19 -6 36 -6 39 -1 12 19 115 82
130 79 9 -2 18 -18 22 -40 5 -35 27 -73 36 -64 11 11 49 133 45 148 -2 9 -14
24 -28 32 -14 10 -24 26 -24 41 0 50 -76 69 -165 41z"/>
<path d="M3144 4483 c-45 -6 -85 -52 -87 -99 -1 -22 -10 -50 -18 -64 -23 -35
-31 -91 -16 -117 7 -13 11 -49 9 -92 l-4 -71 -36 -16 c-44 -18 -79 -49 -99
-88 -16 -30 -63 -207 -63 -236 0 -20 57 -40 113 -40 31 0 38 -4 43 -26 6 -24
2 -100 -12 -217 -9 -76 4 -150 35 -199 30 -45 51 -138 31 -138 -6 0 -15 10
-21 23 -8 18 -9 15 -5 -18 2 -22 7 -48 11 -57 6 -14 2 -18 -16 -18 -29 1 -51
17 -65 50 -9 20 -10 11 -6 -47 l5 -73 -104 0 c-83 0 -364 -26 -377 -36 -2 -1
4 -35 12 -75 10 -48 15 -127 14 -224 0 -82 3 -181 6 -220 5 -48 4 -65 -3 -54
-5 8 -33 31 -60 50 -61 41 -65 63 -22 117 42 53 48 84 22 127 -12 20 -21 41
-21 47 0 6 -6 19 -14 27 -13 14 -13 25 -1 81 8 36 14 79 15 96 l0 30 -112 14
c-62 7 -159 15 -215 17 l-103 5 0 118 c0 84 4 120 12 122 10 4 10 37 0 154 -7
82 -12 177 -12 211 l0 61 -48 -1 c-39 -2 -59 5 -119 41 l-73 43 -37 -19 c-21
-11 -63 -27 -94 -37 l-55 -17 -12 -107 c-13 -119 -16 -331 -4 -331 4 0 8 -54
9 -120 l3 -120 -114 0 -114 0 -4 65 c-1 36 0 65 5 65 15 0 6 58 -28 185 -19
72 -35 140 -35 151 0 13 -20 40 -50 68 -46 43 -53 46 -102 46 -68 0 -128 10
-128 21 0 5 10 9 23 10 17 0 15 3 -12 13 -54 19 -53 40 0 32 l44 -7 -41 19
c-53 25 -68 47 -28 40 16 -3 38 -9 49 -13 11 -4 5 2 -12 14 -31 20 -44 41 -24
41 5 0 34 -11 65 -25 67 -30 76 -31 76 -7 0 10 13 -3 30 -30 32 -50 53 -65
139 -93 44 -14 60 -15 92 -6 22 7 39 13 39 15 0 17 -73 234 -85 252 -8 13 -34
33 -56 44 l-40 21 33 42 c49 60 49 61 37 114 -6 26 -11 83 -10 125 2 99 -14
142 -63 158 -38 12 -53 7 -171 -58 -73 -40 -108 -126 -71 -175 12 -15 15 -15
25 -3 10 11 19 13 38 5 21 -8 24 -7 20 5 -8 21 11 30 30 14 8 -7 34 -18 57
-23 26 -7 44 -19 51 -33 11 -25 25 -29 25 -7 0 8 5 15 10 15 24 0 7 -43 -35
-87 -36 -38 -44 -53 -40 -73 4 -20 -3 -36 -30 -68 -30 -34 -43 -42 -71 -42
-30 0 -34 3 -34 26 0 14 5 34 11 46 6 11 9 22 6 24 -9 9 -98 -39 -125 -67 -15
-16 -34 -29 -42 -29 -11 0 -15 -13 -17 -52 0 -29 -4 -93 -8 -143 l-7 -90 24
35 23 35 3 -35 c4 -58 12 -80 27 -80 19 0 19 -7 0 -26 -8 -9 -15 -31 -15 -49
0 -19 -5 -57 -11 -85 l-11 -50 -24 49 c-35 69 -110 136 -202 177 -42 19 -88
41 -102 47 -14 7 -39 38 -55 69 -38 72 -72 108 -101 108 -29 0 -30 -4 -24
-109 6 -101 17 -123 91 -180 24 -18 48 -40 52 -47 5 -9 -7 -47 -32 -103 -23
-48 -41 -101 -41 -117 1 -40 26 -84 81 -141 l46 -48 -36 0 c-57 0 -52 -19 7
-25 49 -5 54 -8 87 -54 33 -46 62 -113 53 -122 -8 -8 -194 63 -230 88 l-26 18
-7 -32 c-12 -56 -46 -110 -107 -175 l-60 -61 4 -119 c3 -114 5 -122 40 -194
62 -125 175 -234 329 -319 73 -39 76 -40 174 -39 l100 1 -60 12 c-155 31 -169
77 -32 110 26 6 27 5 16 -15 -17 -32 4 -41 86 -35 122 8 150 17 153 49 l3 28
77 -3 77 -3 -3 -37 c-4 -43 15 -58 73 -58 71 0 77 10 105 185 18 114 13 174
-20 230 -17 28 -40 63 -52 78 -22 27 -23 38 -25 225 -2 108 0 207 3 220 6 21
11 22 119 22 l113 0 6 -82 c14 -204 22 -770 12 -787 -4 -6 -24 -19 -43 -29
-39 -18 -62 -46 -50 -59 10 -10 128 -9 190 2 53 9 62 17 59 58 -1 15 4 35 13
43 13 13 15 59 11 337 -3 312 3 453 17 397 15 -63 27 -163 27 -236 0 -43 5
-174 12 -291 11 -196 13 -212 31 -217 14 -3 18 -10 12 -23 -3 -10 -9 -33 -12
-50 -5 -29 -2 -34 23 -44 36 -13 102 -6 122 14 15 16 13 27 -13 63 -15 20 -14
23 1 39 16 15 16 36 8 248 -10 263 -11 549 -1 588 8 33 20 36 136 31 l94 -4
-6 -201 -7 -200 -59 -53 c-86 -79 -95 -102 -87 -243 7 -114 7 -117 -19 -151
l-26 -35 32 -13 c29 -12 40 -11 97 8 67 22 92 19 57 -6 -39 -29 -65 -54 -65
-64 0 -19 44 -32 93 -27 39 3 56 10 72 31 11 14 26 26 33 26 7 0 12 6 13 13 1
6 2 23 2 37 2 20 8 26 34 28 25 3 34 10 47 40 9 20 33 65 55 99 l38 62 6 -86
c4 -63 9 -90 21 -99 10 -7 16 -26 16 -53 0 -29 4 -41 15 -41 8 0 22 -11 31
-25 18 -27 81 -42 133 -30 43 9 39 30 -14 79 -42 40 -61 86 -34 86 8 0 10 54
5 198 -3 108 -9 293 -12 410 l-7 212 140 0 139 0 3 -46 c1 -32 -6 -61 -25
-100 -22 -45 -26 -63 -21 -105 3 -27 16 -68 28 -89 l23 -40 -17 -133 c-16
-123 -21 -211 -18 -314 1 -31 5 -43 16 -43 21 0 19 -12 -7 -45 -16 -21 -19
-31 -11 -44 23 -36 137 -39 150 -4 4 9 2 33 -4 54 -13 48 -3 57 53 52 40 -5
41 -5 40 -46 l-1 -42 50 -8 c111 -16 151 -18 177 -8 35 13 28 35 -21 62 l-36
20 40 -6 c63 -11 105 -31 105 -53 0 -23 -38 -41 -125 -58 -55 -11 -44 -12 138
-13 125 -1 197 3 197 9 0 6 -7 10 -15 10 -8 0 -33 7 -55 16 -59 24 -53 53 15
76 56 18 65 12 39 -28 -18 -26 -17 -27 5 -45 27 -22 98 -26 124 -6 15 11 16
19 6 75 -10 53 -8 80 10 180 11 65 21 125 21 134 0 23 -62 41 -113 34 -67 -10
-69 -14 -58 -87 6 -35 11 -77 11 -92 l0 -29 -27 21 c-16 12 -57 43 -93 69 -87
63 -100 90 -111 215 -4 56 -8 108 -9 115 0 7 -18 32 -40 56 l-41 44 11 108 c5
60 10 115 10 122 0 9 31 12 120 12 100 0 120 3 120 15 0 13 -20 15 -120 15
l-120 0 5 38 c2 20 7 72 11 114 3 42 11 82 18 87 10 9 7 37 -16 138 -32 143
-33 244 -5 438 14 95 14 103 -5 152 -24 66 -64 106 -124 127 l-46 16 7 -23
c14 -43 18 -107 6 -107 -16 0 -81 35 -107 58 -33 28 -54 77 -54 126 0 36 3 44
15 40 22 -9 18 13 -5 33 -11 10 -20 25 -20 34 0 21 24 31 38 17 7 -7 16 1 29
27 23 49 74 78 127 71 45 -5 53 -12 66 -55 8 -29 7 -31 -10 -26 -10 3 -21 2
-24 -3 -6 -10 45 -24 54 -15 3 2 4 27 3 55 -1 42 -6 56 -34 84 -18 19 -39 34
-47 34 -9 0 -11 7 -7 19 3 11 0 23 -6 27 -8 5 -10 3 -4 -7 4 -8 -7 1 -24 19
-18 17 -33 31 -34 30 -1 0 -16 -3 -33 -5z m-1964 -403 c0 -5 -5 -10 -11 -10
-5 0 -7 5 -4 10 3 6 8 10 11 10 2 0 4 -4 4 -10z m-483 -1432 c-3 -7 -5 -2 -5
12 0 14 2 19 5 13 2 -7 2 -19 0 -25z m-10 -40 c-3 -8 -6 -5 -6 6 -1 11 2 17 5
13 3 -3 4 -12 1 -19z m-164 -33 c-18 -8 -64 -43 -102 -79 -39 -36 -75 -66 -80
-66 -5 0 -16 -3 -25 -6 -11 -4 -6 14 19 65 19 39 36 71 38 71 1 0 20 7 42 15
22 8 63 14 90 14 l50 0 -32 -14z m160 -49 c3 -30 1 -43 -4 -35 -5 8 -8 34 -8
59 1 53 6 44 12 -24z m97 -143 c0 -8 -9 0 -50 45 l-45 47 48 -45 c26 -24 47
-45 47 -47z m76 -55 c4 -7 -9 1 -29 16 -20 16 -37 30 -37 33 0 7 58 -36 66
-49z m35 -25 c13 -16 12 -17 -3 -4 -10 7 -18 15 -18 17 0 8 8 3 21 -13z m36
-25 c-3 -8 -6 -5 -6 6 -1 11 2 17 5 13 3 -3 4 -12 1 -19z m290 -190 c-3 -7 -5
-2 -5 12 0 14 2 19 5 13 2 -7 2 -19 0 -25z m-103 -4 c3 -8 2 -12 -4 -9 -6 3
-10 10 -10 16 0 14 7 11 14 -7z"/>
<path d="M1703 4450 c-33 -20 -63 -66 -63 -97 0 -11 6 -6 18 15 16 32 21 34
77 38 33 2 69 5 79 6 30 5 63 -79 50 -129 -8 -35 -12 -38 -49 -41 -22 -1 -47
-6 -55 -9 -8 -3 -26 -7 -40 -8 -14 -1 -33 -5 -42 -9 -12 -6 -21 0 -32 21 -18
34 -20 15 -4 -39 15 -50 59 -88 101 -88 49 1 114 34 131 69 14 25 15 46 8 125
-6 60 -15 105 -26 121 -31 47 -99 58 -153 25z m102 -261 c-8 -12 -72 -22 -86
-14 -19 12 27 32 62 27 16 -2 26 -8 24 -13z"/>
<path d="M1770 4340 c0 -5 16 -10 36 -10 21 0 33 4 29 10 -3 6 -19 10 -36 10
-16 0 -29 -4 -29 -10z"/>
<path d="M1674 4324 c-17 -14 -17 -15 -1 -10 10 3 25 6 33 6 8 0 14 5 14 10 0
15 -24 12 -46 -6z"/>
<path d="M2460 4321 c0 -4 11 -6 25 -3 14 2 25 6 25 8 0 2 -11 4 -25 4 -14 0
-25 -4 -25 -9z"/>
<path d="M1787 4313 c-10 -10 -8 -25 2 -18 5 3 12 1 16 -5 4 -6 11 -5 19 3 8
6 12 15 9 20 -5 9 -37 9 -46 0z"/>
<path d="M1673 4303 c-7 -2 -13 -9 -13 -14 0 -4 7 -6 15 -3 8 4 15 1 15 -5 0
-6 7 -8 15 -5 12 5 13 10 4 20 -12 15 -16 16 -36 7z"/>
<path d="M2311 4296 c12 -10 59 -15 59 -6 0 5 -14 10 -32 10 -17 0 -29 -2 -27
-4z"/>
<path d="M2455 4290 c-4 -7 3 -8 22 -4 38 9 42 14 10 14 -14 0 -29 -5 -32 -10z"/>
<path d="M3150 4240 c-11 -7 -6 -10 20 -10 26 0 31 3 20 10 -8 5 -17 10 -20
10 -3 0 -12 -5 -20 -10z"/>
<path d="M1956 4213 c-3 -3 -6 -42 -6 -85 l0 -79 -27 14 c-70 36 -65 38 -128
-63 -5 -9 -36 -42 -68 -73 -48 -49 -58 -55 -64 -40 -10 24 -10 122 0 156 9 34
-7 36 -54 4 -28 -19 -35 -32 -46 -82 -7 -33 -12 -93 -13 -133 l0 -72 42 30
c47 34 87 38 146 14 36 -14 43 -14 90 4 28 11 52 16 54 11 2 -5 28 0 58 11 60
22 91 12 44 -14 l-29 -16 38 6 c22 4 37 2 37 -4 0 -5 -17 -17 -37 -26 -36 -15
-36 -16 -9 -14 17 2 31 -2 33 -9 3 -7 -2 -13 -11 -13 -9 0 -16 -6 -16 -14 0
-17 37 -28 46 -14 4 5 3 61 -1 124 -6 92 -12 124 -31 162 -19 38 -24 62 -24
129 0 75 -7 102 -24 86z"/>
<path d="M3170 4206 c0 -9 5 -16 10 -16 6 0 10 4 10 9 0 6 -4 13 -10 16 -5 3
-10 -1 -10 -9z"/>
<path d="M3286 4211 c-4 -7 -5 -15 -2 -18 9 -9 19 4 14 18 -4 11 -6 11 -12 0z"/>
<path d="M3855 4191 c-3 -5 -1 -12 5 -16 5 -3 10 1 10 9 0 18 -6 21 -15 7z"/>
<path d="M3935 4190 c-3 -5 -1 -10 4 -10 6 0 11 5 11 10 0 6 -2 10 -4 10 -3 0
-8 -4 -11 -10z"/>
<path d="M2340 4114 c0 -8 5 -12 10 -9 6 3 10 10 10 16 0 5 -4 9 -10 9 -5 0
-10 -7 -10 -16z"/>
<path d="M2490 4110 c8 -14 7 -26 -1 -42 -18 -35 -107 -120 -119 -113 -5 3
-10 4 -10 2 0 -4 46 -141 56 -167 3 -8 20 29 37 85 18 55 40 111 50 125 10 14
20 42 24 63 5 32 8 36 21 25 21 -18 42 -71 42 -108 0 -17 -10 -44 -21 -60 -14
-19 -23 -47 -25 -82 l-3 -53 8 53 c14 86 62 122 80 60 7 -26 9 -28 10 -10 1
12 -8 31 -19 42 -12 12 -20 33 -20 55 0 48 -34 111 -70 130 -41 21 -53 20 -40
-5z"/>
<path d="M2281 4083 c-24 -30 -36 -66 -28 -85 3 -7 6 -2 6 12 1 27 24 66 51
87 9 8 10 12 3 13 -6 0 -21 -12 -32 -27z"/>
<path d="M1042 4034 c1 -9 9 -19 16 -22 9 -3 13 2 10 14 -1 9 -9 19 -16 22 -9
3 -13 -2 -10 -14z"/>
<path d="M1167 4033 c-13 -12 -7 -33 8 -33 8 0 15 9 15 20 0 20 -11 26 -23 13z"/>
<path d="M2247 3940 c4 -25 7 -72 7 -105 1 -57 2 -60 28 -63 19 -2 28 2 33 18
7 23 -9 50 -31 50 -7 0 -16 16 -19 38 -3 20 -10 53 -15 72 -8 31 -8 29 -3 -10z
m53 -140 c0 -11 -6 -20 -14 -20 -18 0 -29 16 -21 30 11 18 35 11 35 -10z"/>
<path d="M4795 3916 c-14 -14 -39 -55 -55 -91 -28 -62 -31 -65 -94 -94 -88
-40 -179 -105 -210 -149 -39 -57 -55 -104 -80 -231 -13 -65 -31 -132 -40 -149
-9 -17 -48 -59 -87 -94 -40 -35 -89 -79 -111 -98 l-38 -35 12 -87 c10 -79 10
-91 -7 -129 -19 -41 -19 -42 4 -106 15 -40 21 -75 17 -93 -3 -17 1 -41 9 -56
14 -29 12 -38 -23 -99 l-23 -41 -74 1 c-43 0 -79 -5 -86 -12 -8 -8 -8 -46 1
-153 7 -78 9 -159 6 -180 -7 -45 2 -54 64 -65 54 -10 176 -12 185 -3 13 13
-16 47 -50 58 -54 18 -42 28 21 18 147 -23 151 -78 9 -112 l-60 -14 50 -1 c39
0 82 13 191 57 175 72 236 108 330 195 121 113 194 249 194 363 0 41 -2 44
-27 44 l-27 0 32 31 c18 17 32 39 32 47 0 9 27 73 59 142 106 225 100 309 -17
245 l-48 -26 0 -78 c0 -69 -4 -86 -36 -152 -20 -41 -57 -99 -82 -129 -25 -30
-60 -81 -78 -115 -30 -54 -33 -68 -33 -143 l0 -84 -30 64 c-26 54 -30 75 -30
143 0 103 12 124 127 234 60 57 99 103 114 136 22 46 31 95 19 95 -3 0 -30
-20 -60 -45 -31 -25 -69 -52 -85 -60 -30 -15 -30 -15 -41 12 -6 15 -13 51 -16
80 -7 67 20 125 116 245 68 87 91 130 91 174 0 13 -20 62 -45 108 -25 47 -45
91 -45 98 0 7 23 33 51 57 65 56 94 116 83 174 -4 23 -8 60 -8 82 -1 33 -5 41
-23 43 -14 2 -32 -7 -48 -22z"/>
<path d="M1508 3753 c7 -3 16 -2 19 1 4 3 -2 6 -13 5 -11 0 -14 -3 -6 -6z"/>
<path d="M4098 3188 c-2 -84 -2 -155 0 -158 8 -12 22 29 22 65 1 37 2 39 15
21 14 -18 15 -15 15 40 -1 32 -7 70 -15 84 -8 14 -14 42 -15 63 0 20 -4 37 -9
37 -6 0 -11 -65 -13 -152z"/>
<path d="M3630 3320 c-32 -8 -30 -31 12 -123 32 -69 31 -82 -7 -89 -17 -3 -20
-11 -20 -57 1 -44 5 -56 25 -72 32 -24 54 -25 46 -2 -4 9 -10 36 -13 60 -6 48
11 60 27 18 5 -14 12 -25 15 -25 12 0 -9 87 -28 120 -13 22 -23 61 -26 106 -6
69 -6 70 -31 64z"/>
<path d="M171 2982 c-15 -28 -14 -66 4 -131 16 -63 65 -181 74 -181 20 0 129
102 150 139 l23 43 -33 34 c-51 52 -131 104 -171 110 -30 5 -38 3 -47 -14z"/>
<path d="M2048 1940 c-9 -6 -45 -17 -80 -24 l-63 -14 150 0 150 -1 -55 15
c-30 8 -59 19 -64 24 -12 12 -16 12 -38 0z"/>
<path d="M1315 1915 l-40 -13 46 -1 c33 -1 49 3 53 14 6 18 -5 18 -59 0z"/>
<path d="M3660 1645 c-127 -40 -197 -177 -158 -309 18 -59 100 -141 158 -156
209 -56 385 152 289 341 -26 53 -101 115 -154 128 -55 14 -79 13 -135 -4z
m141 -144 c27 -28 35 -54 30 -106 -8 -96 -109 -136 -172 -69 -20 21 -24 36
-24 84 0 51 4 63 29 89 41 43 95 43 137 2z"/>
<path d="M640 1590 l0 -60 70 0 70 0 0 -175 0 -175 65 0 65 0 0 175 0 175 70
0 70 0 0 60 0 60 -205 0 -205 0 0 -60z"/>
<path d="M1090 1415 l0 -235 70 0 70 0 0 90 0 90 70 0 70 0 0 -90 0 -90 70 0
70 0 0 235 0 235 -70 0 -70 0 0 -85 0 -85 -70 0 -70 0 0 85 0 85 -70 0 -70 0
0 -235z"/>
<path d="M1700 1628 c-6 -13 -43 -119 -83 -235 l-74 -213 73 0 72 0 7 33 c11
49 22 57 81 57 l54 0 12 -45 12 -45 71 0 72 0 -81 235 -81 235 -63 0 c-55 0
-64 -3 -72 -22z m92 -213 l15 -55 -37 0 -37 0 15 55 c8 30 18 55 22 55 4 0 14
-25 22 -55z"/>
<path d="M2030 1415 l0 -235 65 0 65 0 0 105 c0 58 3 105 8 104 4 0 44 -47 90
-105 l83 -104 59 0 60 0 0 235 0 235 -70 0 -69 0 -3 -112 -3 -112 -88 112 -88
112 -55 0 -54 0 0 -235z"/>
<path d="M2530 1415 l0 -235 70 0 70 0 0 69 c0 106 15 108 81 11 l54 -79 78
-1 c42 0 77 3 77 6 0 3 -38 59 -85 125 -47 66 -85 122 -85 125 0 3 36 50 80
104 44 54 80 101 80 104 0 3 -34 6 -75 6 l-74 0 -66 -81 -65 -81 0 81 0 81
-70 0 -70 0 0 -235z"/>
<path d="M3060 1644 c0 -4 36 -75 80 -159 80 -152 80 -153 80 -229 l0 -76 65
0 65 0 0 70 c0 69 2 74 86 236 l86 165 -77 -3 -78 -3 -40 -93 -40 -93 -40 95
-40 96 -73 0 c-41 0 -74 -3 -74 -6z"/>
<path d="M4010 1533 c0 -155 13 -228 48 -278 36 -52 80 -76 151 -82 72 -7 125
9 169 51 61 57 66 74 70 259 l4 167 -71 0 -71 0 0 -151 0 -151 -29 -29 c-33
-33 -56 -36 -88 -14 -33 23 -43 75 -43 218 l0 127 -70 0 -70 0 0 -117z"/>
<path d="M720 885 l0 -175 1855 0 1855 0 0 175 0 175 -1855 0 -1855 0 0 -175z
m286 82 c45 -52 24 -145 -37 -166 -18 -6 -54 -11 -80 -11 l-49 0 0 103 c0 57
2 106 4 108 3 3 35 2 72 -1 56 -5 70 -10 90 -33z m212 16 c13 -8 30 -30 38
-50 29 -69 -24 -143 -104 -143 -47 0 -102 55 -102 102 0 92 90 141 168 91z
m217 13 c38 -16 45 -39 18 -54 -12 -7 -24 -5 -40 5 -21 14 -26 14 -48 -1 -29
-19 -34 -66 -9 -90 18 -19 38 -20 65 -6 13 8 25 7 40 -1 21 -11 21 -11 2 -31
-25 -24 -92 -34 -122 -18 -29 15 -61 68 -61 100 0 40 35 88 72 99 45 13 44 13
83 -3z m235 -17 c0 -14 -7 -19 -30 -19 l-30 0 0 -85 0 -85 -30 0 -29 0 -3 83
c-3 81 -3 82 -30 85 -21 3 -28 9 -28 25 0 21 3 22 90 19 81 -3 90 -5 90 -23z
m184 2 c78 -67 32 -191 -72 -191 -47 0 -102 55 -102 102 0 93 106 147 174 89z
m221 -4 c19 -27 19 -67 1 -92 -12 -16 -11 -23 5 -49 25 -41 24 -46 -10 -46
-23 0 -34 8 -50 35 -11 19 -25 35 -31 35 -5 0 -10 -16 -10 -35 0 -32 -2 -35
-30 -35 l-30 0 0 103 c0 57 2 106 4 108 2 2 34 2 70 1 54 -3 69 -8 81 -25z
m168 22 c40 -11 43 -16 24 -43 -10 -14 -17 -15 -41 -6 -48 18 -57 -6 -10 -26
78 -32 95 -71 49 -114 -20 -19 -32 -22 -75 -18 -60 6 -72 15 -63 46 4 16 10
21 22 17 9 -4 29 -9 45 -12 41 -9 30 19 -13 31 -18 5 -40 20 -48 33 -26 40 9
94 67 102 3 1 22 -4 43 -10z m281 -106 l36 -103 -30 0 c-20 0 -31 6 -35 20 -5
14 -15 20 -37 20 -21 0 -31 -6 -35 -20 -4 -14 -14 -20 -35 -20 -24 0 -28 3
-23 19 49 157 62 186 86 192 13 3 27 3 30 0 4 -3 23 -52 43 -108z m158 37 l28
-35 0 53 c0 51 0 52 30 52 l30 0 0 -105 c0 -103 0 -105 -23 -105 -16 0 -37 16
-65 51 l-41 50 -3 -48 c-3 -44 -5 -48 -30 -51 l-28 -3 0 105 c0 91 2 105 18
109 17 4 36 -12 84 -73z m503 17 l40 -52 5 55 c4 49 8 55 28 56 21 1 22 -2 22
-108 0 -130 -9 -137 -82 -56 l-47 53 -1 -53 c0 -52 -1 -53 -27 -50 l-28 3 -3
94 c-1 52 -1 100 2 107 9 24 52 1 91 -49z m325 -20 c0 -73 -2 -80 -29 -108
-38 -37 -88 -39 -128 -5 -25 22 -28 31 -31 105 l-4 81 31 0 31 0 0 -68 c0 -70
10 -92 42 -92 25 0 38 38 38 108 0 54 1 57 25 57 25 0 25 -1 25 -78z m359 72
c31 -11 37 -23 23 -47 -7 -10 -15 -10 -37 -2 -18 7 -32 7 -38 1 -6 -6 8 -18
39 -33 44 -21 49 -27 52 -60 2 -28 -2 -40 -20 -52 -26 -19 -72 -21 -116 -5
-28 10 -30 13 -20 35 8 17 16 23 27 18 9 -4 29 -9 45 -12 38 -6 31 18 -10 31
-59 19 -77 53 -53 98 18 35 58 45 108 28z m221 -20 c0 -16 -7 -19 -45 -19 -38
0 -45 -3 -45 -20 0 -17 7 -20 40 -20 33 0 40 -3 40 -20 0 -17 -7 -20 -40 -20
-33 0 -40 -3 -40 -20 0 -17 7 -20 45 -20 41 0 45 -2 45 -25 0 -24 -2 -25 -75
-25 l-75 0 0 103 c0 57 2 106 4 108 2 2 36 3 75 1 62 -3 71 -6 71 -23z m149
20 c31 -11 37 -23 23 -47 -7 -10 -15 -10 -36 -2 -28 10 -46 6 -46 -10 0 -4 12
-11 28 -15 51 -12 72 -33 72 -70 0 -57 -61 -81 -138 -54 -28 10 -30 13 -20 35
8 17 16 23 27 18 9 -4 29 -9 45 -12 38 -6 31 18 -10 31 -59 19 -77 53 -53 98
18 35 58 45 108 28z m-1282 -14 c27 -19 46 -76 38 -114 -11 -50 -47 -75 -120
-79 l-65 -4 0 106 0 106 63 0 c39 0 70 -6 84 -15z m737 -1 c26 -25 30 -61 11
-90 -15 -24 -15 -27 4 -60 26 -44 27 -44 -8 -44 -23 0 -34 8 -51 35 -12 19
-26 35 -31 35 -5 0 -9 -16 -9 -35 0 -32 -2 -35 -30 -35 l-30 0 0 105 0 105 64
0 c45 0 69 -5 80 -16z"/>
<path d="M907 953 c-4 -3 -7 -30 -7 -60 0 -56 10 -65 51 -43 19 11 27 63 11
86 -9 15 -46 26 -55 17z"/>
<path d="M1131 943 c-31 -21 -29 -80 3 -95 31 -14 53 -5 68 27 23 51 -27 99
-71 68z"/>
<path d="M1762 944 c-25 -17 -31 -71 -10 -92 30 -30 88 3 88 50 0 18 -33 58
-48 58 -4 0 -18 -7 -30 -16z"/>
<path d="M1987 954 c-4 -4 -7 -16 -7 -26 0 -13 7 -18 26 -18 21 0 25 4 22 22
-3 23 -27 35 -41 22z"/>
<path d="M2446 907 c-9 -33 -8 -37 13 -37 14 0 17 6 13 25 -6 34 -18 40 -26
12z"/>
<path d="M2864 947 c-3 -8 -4 -34 -2 -58 3 -50 26 -63 59 -33 34 31 19 85 -29
99 -15 4 -24 2 -28 -8z"/>
<path d="M3610 935 c0 -20 5 -25 25 -25 29 0 36 34 9 44 -27 10 -34 7 -34 -19z"/>
<path d="M8678 485 c-33 -19 -58 -63 -58 -105 0 -28 -2 -30 -40 -30 -27 0 -43
-5 -46 -15 -11 -28 -22 -15 -29 35 -7 48 -19 69 -32 56 -4 -4 -17 -50 -29
-104 -24 -109 -23 -111 -45 66 -8 61 -16 92 -24 92 -14 0 -18 -13 -36 -122 -7
-43 -16 -78 -20 -78 -3 0 -9 17 -13 38 -11 67 -27 113 -38 110 -7 -3 -19 -26
-28 -54 l-17 -49 -82 -3 c-63 -2 -85 1 -97 13 -30 30 -72 5 -59 -36 6 -18 12
-20 44 -15 20 3 75 6 123 6 l88 0 13 32 13 33 13 -50 c27 -110 32 -125 45
-125 9 0 18 26 26 78 7 42 16 80 19 84 4 4 13 -43 20 -105 19 -167 35 -170 66
-12 10 52 22 95 25 95 4 0 10 -18 14 -39 9 -57 23 -59 45 -7 19 43 21 45 68
48 45 3 48 5 45 28 -6 51 8 89 38 105 43 22 76 18 112 -14 l33 -29 33 29 c55
49 133 33 147 -31 7 -32 22 -39 31 -16 9 22 -23 74 -56 91 -42 21 -82 19 -122
-9 l-36 -24 -20 20 c-26 27 -98 33 -134 13z"/>
<path d="M9277 473 c-2 -4 -10 -61 -17 -125 -7 -65 -16 -115 -20 -113 -4 2
-12 37 -20 77 -24 136 -42 153 -61 56 -11 -54 -14 -59 -22 -40 -9 19 -18 22
-69 22 -34 0 -58 -4 -58 -11 0 -37 -141 -179 -178 -179 -6 0 -43 29 -81 65
-71 68 -81 74 -81 52 0 -16 114 -128 148 -146 20 -11 29 -7 82 34 56 43 130
127 130 146 0 5 17 9 38 9 36 0 40 -3 55 -41 20 -51 39 -47 51 12 l9 44 19
-80 c28 -125 33 -138 44 -142 7 -2 16 27 23 79 27 194 23 185 41 83 21 -118
36 -119 66 -5 20 79 22 83 32 58 6 -14 14 -28 19 -31 4 -3 62 -6 128 -8 l120
-4 0 24 c0 34 -29 50 -53 28 -14 -13 -37 -17 -99 -17 l-80 0 -19 51 c-11 28
-23 51 -29 51 -5 0 -19 -36 -31 -79 l-21 -78 -19 104 c-18 94 -33 128 -47 104z"/>
</g>
</svg>
